<svg width="573" height="458" xmlns="http://www.w3.org/2000/svg" xmlns:xlink="http://www.w3.org/1999/xlink" xml:space="preserve" overflow="hidden"><defs><clipPath id="clip0"><rect x="1122" y="1697" width="573" height="458"/></clipPath></defs><g clip-path="url(#clip0)" transform="translate(-1122 -1697)"><path d="M1637.7 1754 1379.85 1754 1322.55 1697 1179.3 1697C1147.79 1697 1122 1722.65 1122 1754L1122 1868 1695 1868 1695 1811C1695 1779.65 1669.22 1754 1637.7 1754Z" fill="#FF5050" fill-rule="evenodd"/><path d="M1637.7 1754 1179.3 1754C1147.79 1754 1122 1779.78 1122 1811.29L1122 2097.71C1122 2129.22 1147.78 2155 1179.3 2155L1637.7 2155C1669.22 2155 1695 2129.22 1695 2097.71L1695 1811.29C1695 1779.78 1669.22 1754 1637.7 1754Z" fill="#FF7C80" fill-rule="evenodd"/></g></svg>